<mxfile host="app.diagrams.net" modified="2021-01-25T00:37:45.870Z" agent="5.0 (X11; Linux x86_64) AppleWebKit/537.36 (KHTML, like Gecko) Chrome/88.0.4324.96 Safari/537.36" etag="nnTMd9vCspG6kfVHL-DS" version="14.2.7" type="github">
  <diagram id="2qn5X2Ru-cSCUIcrenQX" name="Page-1">
    <mxGraphModel dx="3189" dy="2604" grid="1" gridSize="10" guides="1" tooltips="1" connect="1" arrows="1" fold="1" page="1" pageScale="1" pageWidth="850" pageHeight="1100" math="0" shadow="0">
      <root>
        <mxCell id="0" />
        <mxCell id="1" parent="0" />
        <mxCell id="3ymaL1mxYPUGHXvWcZjj-62" value="" style="rounded=0;whiteSpace=wrap;html=1;shadow=1;fillColor=#FFFFFF;" parent="1" vertex="1">
          <mxGeometry x="-650" y="40" width="300" height="190" as="geometry" />
        </mxCell>
        <mxCell id="3ymaL1mxYPUGHXvWcZjj-2" value="External&lt;br&gt;Entity" style="html=1;dashed=0;whitespace=wrap;shadow=1;fillColor=#FF5E5E;" parent="1" vertex="1">
          <mxGeometry x="-610" y="70" width="100" height="70" as="geometry" />
        </mxCell>
        <mxCell id="3ymaL1mxYPUGHXvWcZjj-3" value="Process" style="shape=ellipse;html=1;dashed=0;whitespace=wrap;perimeter=ellipsePerimeter;fillColor=#99E0FF;shadow=1;" parent="1" vertex="1">
          <mxGeometry x="-600" y="160" width="50" height="50" as="geometry" />
        </mxCell>
        <mxCell id="3ymaL1mxYPUGHXvWcZjj-4" value="Data Store" style="shape=partialRectangle;whiteSpace=wrap;html=1;left=0;right=0;fillColor=#CBA8FF;shadow=1;" parent="1" vertex="1">
          <mxGeometry x="-480" y="85" width="90" height="40" as="geometry" />
        </mxCell>
        <mxCell id="3ymaL1mxYPUGHXvWcZjj-9" value="Users table" style="shape=partialRectangle;whiteSpace=wrap;html=1;left=0;right=0;fillColor=#CBA8FF;shadow=1;" parent="1" vertex="1">
          <mxGeometry x="-810" y="355" width="115" height="50" as="geometry" />
        </mxCell>
        <mxCell id="3ymaL1mxYPUGHXvWcZjj-17" value="User&lt;br&gt;Auhentication&lt;br&gt;Process" style="shape=ellipse;html=1;dashed=0;whitespace=wrap;perimeter=ellipsePerimeter;fillColor=#99E0FF;shadow=1;" parent="1" vertex="1">
          <mxGeometry x="-355" y="340" width="80" height="80" as="geometry" />
        </mxCell>
        <mxCell id="3ymaL1mxYPUGHXvWcZjj-19" value="" style="endArrow=classic;startArrow=classic;html=1;entryX=0;entryY=0.5;entryDx=0;entryDy=0;exitX=1;exitY=0.5;exitDx=0;exitDy=0;" parent="1" source="3ymaL1mxYPUGHXvWcZjj-30" target="3ymaL1mxYPUGHXvWcZjj-17" edge="1">
          <mxGeometry width="50" height="50" relative="1" as="geometry">
            <mxPoint x="-401.98973425439726" y="342.8150752683273" as="sourcePoint" />
            <mxPoint x="-335.0000000000002" y="379.9999999999998" as="targetPoint" />
          </mxGeometry>
        </mxCell>
        <mxCell id="5lISjQuAnijE4ojC2Jun-14" value="user_id" style="edgeLabel;html=1;align=center;verticalAlign=middle;resizable=0;points=[];" parent="3ymaL1mxYPUGHXvWcZjj-19" vertex="1" connectable="0">
          <mxGeometry x="-0.2893" y="-1" relative="1" as="geometry">
            <mxPoint x="16.21" as="offset" />
          </mxGeometry>
        </mxCell>
        <mxCell id="3ymaL1mxYPUGHXvWcZjj-24" value="" style="endArrow=classic;startArrow=classic;html=1;entryX=0;entryY=0.5;entryDx=0;entryDy=0;" parent="1" source="3ymaL1mxYPUGHXvWcZjj-9" target="3ymaL1mxYPUGHXvWcZjj-30" edge="1">
          <mxGeometry width="50" height="50" relative="1" as="geometry">
            <mxPoint x="-705" y="430" as="sourcePoint" />
            <mxPoint x="-560" y="430" as="targetPoint" />
          </mxGeometry>
        </mxCell>
        <mxCell id="3ymaL1mxYPUGHXvWcZjj-29" value="user_id&lt;br&gt;email&lt;br&gt;share_preferences" style="edgeLabel;html=1;align=center;verticalAlign=middle;resizable=0;points=[];" parent="3ymaL1mxYPUGHXvWcZjj-24" vertex="1" connectable="0">
          <mxGeometry x="0.4286" relative="1" as="geometry">
            <mxPoint x="-28.6" as="offset" />
          </mxGeometry>
        </mxCell>
        <mxCell id="3ymaL1mxYPUGHXvWcZjj-30" value="Auth0 &lt;br&gt;authentication" style="html=1;dashed=0;whitespace=wrap;shadow=1;fillColor=#FF5E5E;" parent="1" vertex="1">
          <mxGeometry x="-550" y="355" width="100" height="50" as="geometry" />
        </mxCell>
        <mxCell id="3ymaL1mxYPUGHXvWcZjj-32" value="Expense&lt;br&gt;Process" style="shape=ellipse;html=1;dashed=0;whitespace=wrap;perimeter=ellipsePerimeter;fillColor=#99E0FF;shadow=1;" parent="1" vertex="1">
          <mxGeometry x="-10" y="230" width="80" height="80" as="geometry" />
        </mxCell>
        <mxCell id="3ymaL1mxYPUGHXvWcZjj-36" value="Income&lt;br&gt;Process" style="shape=ellipse;html=1;dashed=0;whitespace=wrap;perimeter=ellipsePerimeter;fillColor=#99E0FF;shadow=1;" parent="1" vertex="1">
          <mxGeometry x="-30" y="595" width="80" height="80" as="geometry" />
        </mxCell>
        <mxCell id="3ymaL1mxYPUGHXvWcZjj-44" value="User" style="html=1;dashed=0;whitespace=wrap;shadow=1;fillColor=#FF5E5E;" parent="1" vertex="1">
          <mxGeometry x="-210" y="260" width="100" height="50" as="geometry" />
        </mxCell>
        <mxCell id="3ymaL1mxYPUGHXvWcZjj-45" value="Budget&lt;br&gt;Tracker&lt;br&gt;App" style="shape=ellipse;html=1;dashed=0;whitespace=wrap;perimeter=ellipsePerimeter;fillColor=#99E0FF;shadow=1;" parent="1" vertex="1">
          <mxGeometry x="-200" y="400" width="80" height="80" as="geometry" />
        </mxCell>
        <mxCell id="3ymaL1mxYPUGHXvWcZjj-46" value="" style="endArrow=classic;startArrow=classic;html=1;entryX=0.5;entryY=1;entryDx=0;entryDy=0;exitX=0.5;exitY=0;exitDx=0;exitDy=0;" parent="1" source="3ymaL1mxYPUGHXvWcZjj-45" target="3ymaL1mxYPUGHXvWcZjj-44" edge="1">
          <mxGeometry width="50" height="50" relative="1" as="geometry">
            <mxPoint x="-180" y="390" as="sourcePoint" />
            <mxPoint x="-130" y="340" as="targetPoint" />
          </mxGeometry>
        </mxCell>
        <mxCell id="3ymaL1mxYPUGHXvWcZjj-48" value="" style="endArrow=classic;startArrow=classic;html=1;exitX=0.992;exitY=0.585;exitDx=0;exitDy=0;exitPerimeter=0;" parent="1" source="3ymaL1mxYPUGHXvWcZjj-17" target="3ymaL1mxYPUGHXvWcZjj-45" edge="1">
          <mxGeometry width="50" height="50" relative="1" as="geometry">
            <mxPoint x="-245" y="440" as="sourcePoint" />
            <mxPoint x="-210" y="390" as="targetPoint" />
          </mxGeometry>
        </mxCell>
        <mxCell id="5lISjQuAnijE4ojC2Jun-13" value="user_id" style="edgeLabel;html=1;align=center;verticalAlign=middle;resizable=0;points=[];" parent="3ymaL1mxYPUGHXvWcZjj-48" vertex="1" connectable="0">
          <mxGeometry x="0.2213" relative="1" as="geometry">
            <mxPoint as="offset" />
          </mxGeometry>
        </mxCell>
        <mxCell id="3ymaL1mxYPUGHXvWcZjj-50" value="" style="endArrow=classic;html=1;exitX=1.002;exitY=0.315;exitDx=0;exitDy=0;exitPerimeter=0;entryX=0.054;entryY=0.752;entryDx=0;entryDy=0;entryPerimeter=0;" parent="1" source="3ymaL1mxYPUGHXvWcZjj-45" target="3ymaL1mxYPUGHXvWcZjj-32" edge="1">
          <mxGeometry width="50" height="50" relative="1" as="geometry">
            <mxPoint x="-100" y="440" as="sourcePoint" />
            <mxPoint x="-50" y="390" as="targetPoint" />
          </mxGeometry>
        </mxCell>
        <mxCell id="3ymaL1mxYPUGHXvWcZjj-75" value="user_id" style="edgeLabel;html=1;align=center;verticalAlign=middle;resizable=0;points=[];" parent="3ymaL1mxYPUGHXvWcZjj-50" vertex="1" connectable="0">
          <mxGeometry x="-0.2005" y="3" relative="1" as="geometry">
            <mxPoint as="offset" />
          </mxGeometry>
        </mxCell>
        <mxCell id="3ymaL1mxYPUGHXvWcZjj-51" value="" style="endArrow=classic;html=1;entryX=0.044;entryY=0.346;entryDx=0;entryDy=0;entryPerimeter=0;exitX=0.971;exitY=0.742;exitDx=0;exitDy=0;exitPerimeter=0;" parent="1" source="3ymaL1mxYPUGHXvWcZjj-45" target="3ymaL1mxYPUGHXvWcZjj-36" edge="1">
          <mxGeometry width="50" height="50" relative="1" as="geometry">
            <mxPoint x="-90" y="510" as="sourcePoint" />
            <mxPoint x="-40" y="460" as="targetPoint" />
          </mxGeometry>
        </mxCell>
        <mxCell id="3ymaL1mxYPUGHXvWcZjj-125" value="user_id" style="edgeLabel;html=1;align=center;verticalAlign=middle;resizable=0;points=[];" parent="3ymaL1mxYPUGHXvWcZjj-51" vertex="1" connectable="0">
          <mxGeometry x="0.1505" relative="1" as="geometry">
            <mxPoint x="-12.79" y="-23.27" as="offset" />
          </mxGeometry>
        </mxCell>
        <mxCell id="3ymaL1mxYPUGHXvWcZjj-59" value="" style="endArrow=classic;startArrow=classic;html=1;" parent="1" edge="1">
          <mxGeometry width="50" height="50" relative="1" as="geometry">
            <mxPoint x="-480" y="190" as="sourcePoint" />
            <mxPoint x="-390" y="190" as="targetPoint" />
          </mxGeometry>
        </mxCell>
        <mxCell id="3ymaL1mxYPUGHXvWcZjj-60" value="Data Flow" style="edgeLabel;html=1;align=center;verticalAlign=middle;resizable=0;points=[];" parent="3ymaL1mxYPUGHXvWcZjj-59" vertex="1" connectable="0">
          <mxGeometry x="-0.2185" relative="1" as="geometry">
            <mxPoint x="10" as="offset" />
          </mxGeometry>
        </mxCell>
        <mxCell id="3ymaL1mxYPUGHXvWcZjj-61" value="&lt;b&gt;KEY:&lt;/b&gt;" style="text;html=1;strokeColor=none;fillColor=none;align=center;verticalAlign=middle;whiteSpace=wrap;rounded=0;shadow=1;" parent="1" vertex="1">
          <mxGeometry x="-520" y="40" width="40" height="20" as="geometry" />
        </mxCell>
        <mxCell id="3ymaL1mxYPUGHXvWcZjj-65" value="TradingView&lt;br&gt;API" style="html=1;dashed=0;whitespace=wrap;shadow=1;fillColor=#FF5E5E;" parent="1" vertex="1">
          <mxGeometry x="-560" y="580" width="100" height="50" as="geometry" />
        </mxCell>
        <mxCell id="3ymaL1mxYPUGHXvWcZjj-66" value="Users table" style="shape=partialRectangle;whiteSpace=wrap;html=1;left=0;right=0;fillColor=#CBA8FF;shadow=1;" parent="1" vertex="1">
          <mxGeometry x="-555" y="700" width="90" height="40" as="geometry" />
        </mxCell>
        <mxCell id="3ymaL1mxYPUGHXvWcZjj-67" value="Shares&lt;br&gt;Process" style="shape=ellipse;html=1;dashed=0;whitespace=wrap;perimeter=ellipsePerimeter;fillColor=#99E0FF;shadow=1;" parent="1" vertex="1">
          <mxGeometry x="-550" y="450" width="80" height="80" as="geometry" />
        </mxCell>
        <mxCell id="3ymaL1mxYPUGHXvWcZjj-69" value="" style="endArrow=classic;html=1;entryX=0.95;entryY=0.242;entryDx=0;entryDy=0;entryPerimeter=0;" parent="1" source="3ymaL1mxYPUGHXvWcZjj-45" target="3ymaL1mxYPUGHXvWcZjj-67" edge="1">
          <mxGeometry width="50" height="50" relative="1" as="geometry">
            <mxPoint x="-220" y="540" as="sourcePoint" />
            <mxPoint x="-170" y="490" as="targetPoint" />
          </mxGeometry>
        </mxCell>
        <mxCell id="5lISjQuAnijE4ojC2Jun-15" value="user_id" style="edgeLabel;html=1;align=center;verticalAlign=middle;resizable=0;points=[];" parent="3ymaL1mxYPUGHXvWcZjj-69" vertex="1" connectable="0">
          <mxGeometry x="-0.2505" y="1" relative="1" as="geometry">
            <mxPoint x="-27.27" as="offset" />
          </mxGeometry>
        </mxCell>
        <mxCell id="3ymaL1mxYPUGHXvWcZjj-78" value="" style="endArrow=classic;startArrow=classic;html=1;entryX=0.5;entryY=1;entryDx=0;entryDy=0;exitX=0.5;exitY=0;exitDx=0;exitDy=0;" parent="1" source="3ymaL1mxYPUGHXvWcZjj-65" target="3ymaL1mxYPUGHXvWcZjj-67" edge="1">
          <mxGeometry width="50" height="50" relative="1" as="geometry">
            <mxPoint x="-520" y="580" as="sourcePoint" />
            <mxPoint x="-470" y="530" as="targetPoint" />
          </mxGeometry>
        </mxCell>
        <mxCell id="5lISjQuAnijE4ojC2Jun-16" value="user_id" style="edgeLabel;html=1;align=center;verticalAlign=middle;resizable=0;points=[];" parent="3ymaL1mxYPUGHXvWcZjj-78" vertex="1" connectable="0">
          <mxGeometry x="-0.32" y="-1" relative="1" as="geometry">
            <mxPoint x="-1" y="-2.76" as="offset" />
          </mxGeometry>
        </mxCell>
        <mxCell id="3ymaL1mxYPUGHXvWcZjj-79" value="" style="endArrow=classic;startArrow=classic;html=1;entryX=0.5;entryY=1;entryDx=0;entryDy=0;" parent="1" source="3ymaL1mxYPUGHXvWcZjj-66" target="3ymaL1mxYPUGHXvWcZjj-65" edge="1">
          <mxGeometry width="50" height="50" relative="1" as="geometry">
            <mxPoint x="-620" y="710" as="sourcePoint" />
            <mxPoint x="-570" y="660" as="targetPoint" />
          </mxGeometry>
        </mxCell>
        <mxCell id="3ymaL1mxYPUGHXvWcZjj-80" value="user_id&lt;br&gt;share_preferences" style="edgeLabel;html=1;align=center;verticalAlign=middle;resizable=0;points=[];" parent="3ymaL1mxYPUGHXvWcZjj-79" vertex="1" connectable="0">
          <mxGeometry x="0.24" relative="1" as="geometry">
            <mxPoint y="3.5999999999999996" as="offset" />
          </mxGeometry>
        </mxCell>
        <mxCell id="3ymaL1mxYPUGHXvWcZjj-83" value="Expenses table" style="shape=partialRectangle;whiteSpace=wrap;html=1;left=0;right=0;fillColor=#CBA8FF;shadow=1;" parent="1" vertex="1">
          <mxGeometry x="350" y="245" width="90" height="40" as="geometry" />
        </mxCell>
        <mxCell id="3ymaL1mxYPUGHXvWcZjj-87" value="CRUD&lt;br&gt;Process" style="shape=ellipse;html=1;dashed=0;whitespace=wrap;perimeter=ellipsePerimeter;fillColor=#99E0FF;shadow=1;" parent="1" vertex="1">
          <mxGeometry x="150" y="230" width="80" height="80" as="geometry" />
        </mxCell>
        <mxCell id="3ymaL1mxYPUGHXvWcZjj-96" value="" style="endArrow=classic;startArrow=classic;html=1;exitX=1;exitY=0.5;exitDx=0;exitDy=0;entryX=-0.014;entryY=0.6;entryDx=0;entryDy=0;entryPerimeter=0;" parent="1" source="3ymaL1mxYPUGHXvWcZjj-87" target="3ymaL1mxYPUGHXvWcZjj-83" edge="1">
          <mxGeometry width="50" height="50" relative="1" as="geometry">
            <mxPoint x="280" y="305" as="sourcePoint" />
            <mxPoint x="330" y="255" as="targetPoint" />
          </mxGeometry>
        </mxCell>
        <mxCell id="3ymaL1mxYPUGHXvWcZjj-99" value="user_id&lt;br&gt;description&lt;br&gt;amount&lt;br&gt;category_id" style="edgeLabel;html=1;align=center;verticalAlign=middle;resizable=0;points=[];" parent="3ymaL1mxYPUGHXvWcZjj-96" vertex="1" connectable="0">
          <mxGeometry x="-0.1168" y="1" relative="1" as="geometry">
            <mxPoint as="offset" />
          </mxGeometry>
        </mxCell>
        <mxCell id="3ymaL1mxYPUGHXvWcZjj-104" value="Expenses table" style="shape=partialRectangle;whiteSpace=wrap;html=1;left=0;right=0;fillColor=#CBA8FF;shadow=1;" parent="1" vertex="1">
          <mxGeometry x="349.9995510091176" y="615" width="90" height="40" as="geometry" />
        </mxCell>
        <mxCell id="3ymaL1mxYPUGHXvWcZjj-106" value="CRUD&lt;br&gt;PROCESS" style="shape=ellipse;html=1;dashed=0;whitespace=wrap;perimeter=ellipsePerimeter;fillColor=#99E0FF;shadow=1;" parent="1" vertex="1">
          <mxGeometry x="149.99955100911762" y="600" width="80" height="80" as="geometry" />
        </mxCell>
        <mxCell id="3ymaL1mxYPUGHXvWcZjj-113" value="" style="endArrow=classic;startArrow=classic;html=1;exitX=1;exitY=0.5;exitDx=0;exitDy=0;entryX=-0.014;entryY=0.6;entryDx=0;entryDy=0;entryPerimeter=0;" parent="1" source="3ymaL1mxYPUGHXvWcZjj-106" target="3ymaL1mxYPUGHXvWcZjj-104" edge="1">
          <mxGeometry width="50" height="50" relative="1" as="geometry">
            <mxPoint x="279.9995510091176" y="675" as="sourcePoint" />
            <mxPoint x="329.9995510091176" y="625" as="targetPoint" />
          </mxGeometry>
        </mxCell>
        <mxCell id="3ymaL1mxYPUGHXvWcZjj-114" value="user_id&lt;br&gt;description&lt;br&gt;amount&lt;br&gt;category_id" style="edgeLabel;html=1;align=center;verticalAlign=middle;resizable=0;points=[];" parent="3ymaL1mxYPUGHXvWcZjj-113" vertex="1" connectable="0">
          <mxGeometry x="-0.1168" y="1" relative="1" as="geometry">
            <mxPoint as="offset" />
          </mxGeometry>
        </mxCell>
        <mxCell id="5lISjQuAnijE4ojC2Jun-1" value="Goals&lt;br&gt;Process" style="shape=ellipse;html=1;dashed=0;whitespace=wrap;perimeter=ellipsePerimeter;fillColor=#99E0FF;shadow=1;" parent="1" vertex="1">
          <mxGeometry x="-275" y="510" width="80" height="80" as="geometry" />
        </mxCell>
        <mxCell id="5lISjQuAnijE4ojC2Jun-2" value="CRUD&lt;br&gt;Process" style="shape=ellipse;html=1;dashed=0;whitespace=wrap;perimeter=ellipsePerimeter;fillColor=#99E0FF;shadow=1;" parent="1" vertex="1">
          <mxGeometry x="-275" y="675" width="80" height="80" as="geometry" />
        </mxCell>
        <mxCell id="5lISjQuAnijE4ojC2Jun-4" value="React-Beautiful-dnd" style="html=1;dashed=0;whitespace=wrap;shadow=1;fillColor=#FF5E5E;" parent="1" vertex="1">
          <mxGeometry x="-292.5" y="815" width="115" height="50" as="geometry" />
        </mxCell>
        <mxCell id="5lISjQuAnijE4ojC2Jun-5" value="Goals&amp;nbsp;table" style="shape=partialRectangle;whiteSpace=wrap;html=1;left=0;right=0;fillColor=#CBA8FF;shadow=1;" parent="1" vertex="1">
          <mxGeometry x="-282.5" y="935" width="90" height="40" as="geometry" />
        </mxCell>
        <mxCell id="5lISjQuAnijE4ojC2Jun-6" value="" style="endArrow=classic;startArrow=classic;html=1;entryX=0.5;entryY=1;entryDx=0;entryDy=0;exitX=0.5;exitY=0;exitDx=0;exitDy=0;" parent="1" edge="1">
          <mxGeometry width="50" height="50" relative="1" as="geometry">
            <mxPoint x="-235.17000000000002" y="815" as="sourcePoint" />
            <mxPoint x="-235.17000000000002" y="755" as="targetPoint" />
          </mxGeometry>
        </mxCell>
        <mxCell id="5lISjQuAnijE4ojC2Jun-21" value="user_id&lt;br&gt;description&lt;br&gt;due_date" style="edgeLabel;html=1;align=center;verticalAlign=middle;resizable=0;points=[];" parent="5lISjQuAnijE4ojC2Jun-6" vertex="1" connectable="0">
          <mxGeometry x="0.3724" relative="1" as="geometry">
            <mxPoint y="11.330000000000002" as="offset" />
          </mxGeometry>
        </mxCell>
        <mxCell id="5lISjQuAnijE4ojC2Jun-10" value="" style="endArrow=classic;startArrow=classic;html=1;entryX=0.5;entryY=1;entryDx=0;entryDy=0;" parent="1" target="5lISjQuAnijE4ojC2Jun-4" edge="1">
          <mxGeometry width="50" height="50" relative="1" as="geometry">
            <mxPoint x="-234.5" y="935" as="sourcePoint" />
            <mxPoint x="-62.5" y="865" as="targetPoint" />
          </mxGeometry>
        </mxCell>
        <mxCell id="5lISjQuAnijE4ojC2Jun-12" value="user_id&lt;br&gt;description&lt;br&gt;due_date" style="edgeLabel;html=1;align=center;verticalAlign=middle;resizable=0;points=[];" parent="5lISjQuAnijE4ojC2Jun-10" vertex="1" connectable="0">
          <mxGeometry x="0.2515" relative="1" as="geometry">
            <mxPoint x="-0.18" y="4.14" as="offset" />
          </mxGeometry>
        </mxCell>
        <mxCell id="5lISjQuAnijE4ojC2Jun-11" value="" style="endArrow=classic;html=1;exitX=0.3;exitY=0.95;exitDx=0;exitDy=0;exitPerimeter=0;" parent="1" source="3ymaL1mxYPUGHXvWcZjj-45" target="5lISjQuAnijE4ojC2Jun-1" edge="1">
          <mxGeometry width="50" height="50" relative="1" as="geometry">
            <mxPoint x="-370" y="540" as="sourcePoint" />
            <mxPoint x="-320" y="490" as="targetPoint" />
          </mxGeometry>
        </mxCell>
        <mxCell id="5lISjQuAnijE4ojC2Jun-17" value="user_id" style="edgeLabel;html=1;align=center;verticalAlign=middle;resizable=0;points=[];" parent="5lISjQuAnijE4ojC2Jun-11" vertex="1" connectable="0">
          <mxGeometry x="-0.4041" y="3" relative="1" as="geometry">
            <mxPoint x="-11.01" y="-0.8" as="offset" />
          </mxGeometry>
        </mxCell>
        <mxCell id="0DgwNNaFnSD_NrwE3OVX-2" value="" style="endArrow=classic;startArrow=classic;html=1;" edge="1" parent="1">
          <mxGeometry width="50" height="50" relative="1" as="geometry">
            <mxPoint x="50" y="639" as="sourcePoint" />
            <mxPoint x="150" y="639" as="targetPoint" />
          </mxGeometry>
        </mxCell>
        <mxCell id="0DgwNNaFnSD_NrwE3OVX-3" value="user_id&lt;br&gt;description&lt;br&gt;amount&lt;br&gt;category_id" style="edgeLabel;html=1;align=center;verticalAlign=middle;resizable=0;points=[];" vertex="1" connectable="0" parent="0DgwNNaFnSD_NrwE3OVX-2">
          <mxGeometry x="-0.14" y="-2" relative="1" as="geometry">
            <mxPoint as="offset" />
          </mxGeometry>
        </mxCell>
        <mxCell id="0DgwNNaFnSD_NrwE3OVX-5" value="" style="endArrow=classic;startArrow=classic;html=1;entryX=0.011;entryY=0.498;entryDx=0;entryDy=0;entryPerimeter=0;" edge="1" parent="1" target="3ymaL1mxYPUGHXvWcZjj-87">
          <mxGeometry width="50" height="50" relative="1" as="geometry">
            <mxPoint x="70" y="269.66" as="sourcePoint" />
            <mxPoint x="140" y="270" as="targetPoint" />
          </mxGeometry>
        </mxCell>
        <mxCell id="0DgwNNaFnSD_NrwE3OVX-6" value="user_id&lt;br&gt;description&lt;br&gt;amount&lt;br&gt;category_id" style="edgeLabel;html=1;align=center;verticalAlign=middle;resizable=0;points=[];" vertex="1" connectable="0" parent="0DgwNNaFnSD_NrwE3OVX-5">
          <mxGeometry x="-0.14" y="-2" relative="1" as="geometry">
            <mxPoint x="5" y="-1.74" as="offset" />
          </mxGeometry>
        </mxCell>
        <mxCell id="0DgwNNaFnSD_NrwE3OVX-9" value="" style="endArrow=classic;startArrow=classic;html=1;entryX=0.5;entryY=1;entryDx=0;entryDy=0;exitX=0.5;exitY=0;exitDx=0;exitDy=0;" edge="1" parent="1" source="5lISjQuAnijE4ojC2Jun-2" target="5lISjQuAnijE4ojC2Jun-1">
          <mxGeometry width="50" height="50" relative="1" as="geometry">
            <mxPoint x="-250" y="650" as="sourcePoint" />
            <mxPoint x="-200" y="600" as="targetPoint" />
          </mxGeometry>
        </mxCell>
        <mxCell id="0DgwNNaFnSD_NrwE3OVX-10" value="user_id&lt;br&gt;description&lt;br&gt;due_date" style="edgeLabel;html=1;align=center;verticalAlign=middle;resizable=0;points=[];" vertex="1" connectable="0" parent="0DgwNNaFnSD_NrwE3OVX-9">
          <mxGeometry x="0.2" y="1" relative="1" as="geometry">
            <mxPoint as="offset" />
          </mxGeometry>
        </mxCell>
      </root>
    </mxGraphModel>
  </diagram>
</mxfile>
